<svg xmlns="http://www.w3.org/2000/svg" viewBox="0 0 24 24" fill="currentColor" width="24" height="24">
  <path d="M20.447 20.452h-3.554v-5.569c0-1.328-.475-2.236-1.986-2.236-1.081 0-1.722.722-2.006 1.422-.103.249-.129.597-.129.946v5.437h-3.553s.048-8.811 0-9.728h3.553v1.378c.43-.664 1.199-1.609 2.919-1.609 2.133 0 3.733 1.39 3.733 4.38v5.579zM5.337 8.855c-1.144 0-1.915-.759-1.915-1.71 0-.953.77-1.71 1.958-1.71 1.187 0 1.915.757 1.94 1.71 0 .951-.753 1.71-1.983 1.71zm1.581 11.597H3.635V9.724h3.283v10.728zM22.225 0H1.771C.792 0 0 .774 0 1.729v20.542C0 23.227.792 24 1.771 24h20.451C23.2 24 24 23.227 24 22.271V1.729C24 .774 23.2 0 22.222 0h.003z"/>
</svg>